<svg id="Camada_1" data-name="Camada 1" xmlns="http://www.w3.org/2000/svg" viewBox="0 0 594.3 464.47"><defs><style>.cls-1{fill:#53565a;}.cls-2{fill:#0058ff;}.cls-3{fill:#001a70;}.cls-4{fill:#003594;}</style></defs><title>logo_simple</title><path class="cls-1" d="M78.32,341.46Q68.09,332,51.71,332q-9.83-.21-15.66,3t-5.83,9.11Q30.42,355,52.12,357A133,133,0,0,1,67,359.16a66.52,66.52,0,0,1,13.3,4.5,23.46,23.46,0,0,1,10.85,9.52q3.79,6.34,3.79,15.56Q94.7,403.07,83,411.87t-31.11,8.8q-29.48,0-46.05-18.63L16.92,387.1Q30,401.64,52.33,402a32.16,32.16,0,0,0,14.94-3.27q6.35-3.28,6.55-9.83a9.78,9.78,0,0,0-5.63-9.62q-5.83-3.07-17.71-4.3-40.94-3.89-41.14-30.3,0-15.35,12.79-23A55.58,55.58,0,0,1,51.3,314Q75,314,90.19,327.54Z"/><path class="cls-1" d="M114.21,275.55a13.92,13.92,0,0,1,13.1,0q6.55,3.28,6.55,11.46t-6.55,11.57a13.54,13.54,0,0,1-13.1,0q-6.55-3.38-6.55-11.57T114.21,275.55Zm-4.09,40.73V417.6H131.2V316.28H110.12Z"/><path class="cls-1" d="M215.25,417.6V362.13q0-11.67-6.35-19.55t-17.19-7.88a22,22,0,0,0-17.6,8q-6.76,8-6.75,19.45V417.6H146.27V316.48h19.65L167.35,330a25.52,25.52,0,0,1,11.77-11.46,37.57,37.57,0,0,1,16.48-3.68q23.95,0,31.73,20.26,11.05-20.06,34.59-20.06,20.67,0,31.73,12.28t11.05,34.39V417.6H283.41V361.72q0-11.87-5.73-19.34t-16.58-7.47q-11.05,0-17.81,7.88t-6.75,19.34V417.6H215.25Z"/><path class="cls-1" d="M319.77,464.47V316.69h19.86l1.23,16.38a36.91,36.91,0,0,1,15.25-13.61,45.36,45.36,0,0,1,20.37-4.81q22.51,0.21,36.74,14.94t14.22,37.66q0,23.13-13.92,37.87t-37,14.74a51.82,51.82,0,0,1-20.37-4.2,32.06,32.06,0,0,1-15.25-12.79v61.61H319.77Zm77.58-74.1q9-9,9-23.13,0-14.33-8.8-23.23t-23.13-8.9q-14.33,0-23,9.21t-8.7,22.92q0,13.72,9,22.93t22.72,9.21Q388.34,399.38,397.35,390.38Z"/><path class="cls-1" d="M463.5,274.52V417.6H442.41V274.52H463.5Z"/><path class="cls-1" d="M500.37,375a26.67,26.67,0,0,0,10.34,18.42q8.9,7,22.62,7a48.61,48.61,0,0,0,16.48-3q8.29-3,12.79-7.88l13.71,13.3A50.33,50.33,0,0,1,557,415.55a66.78,66.78,0,0,1-24.05,4.5q-24.77,0-39.61-14.53t-14.84-38.89q0-23.13,14.74-37.87T531.49,314q25.38,0,39.51,15.56T582.25,375H500.37ZM562,357.22q-0.82-11.67-8.9-18t-21-6.35q-11.87,0-20.37,6.35t-11,18H562Z"/><path class="cls-2" d="M413,78l0.3-.3,0.09-.09v0a19.74,19.74,0,0,0,5.56-13.74v-45A18.86,18.86,0,0,0,400.06.05H346.9V0H274.48a71.88,71.88,0,1,0,0,143.76h65.35A16.85,16.85,0,0,0,351,139.53c0.48-.42,2.34-2.22,2.34-2.22Z"/><path class="cls-3" d="M208.57,162.89l-0.3.3-0.09.09v0A19.74,19.74,0,0,0,202.6,177v45a18.86,18.86,0,0,0,18.86,18.86h53.16v0.05H347a71.88,71.88,0,1,0,0-143.76H281.7a16.85,16.85,0,0,0-11.18,4.23c-0.48.42-2.34,2.22-2.34,2.22Z"/><path class="cls-4" d="M347,97.17H281.7a16.85,16.85,0,0,0-11.18,4.23c-0.48.42-2.34,2.22-2.34,2.22l-30.25,30.08a71.44,71.44,0,0,0,36.55,10.07h65.35A16.85,16.85,0,0,0,351,139.53c0.48-.42,2.34-2.22,2.34-2.22l30.25-30.08A71.43,71.43,0,0,0,347,97.17Z"/></svg>